<svg version="1.1" id="Layer_1" xmlns="http://www.w3.org/2000/svg" xmlns:xlink="http://www.w3.org/1999/xlink"
	 width="210px" height="800px">
	 <defs>
	 	<g id="door">
			<path id="door-1" d="M33.8,350.4l-10.4-46.1c-5.3-18.3-4.6-38.4-3.9-57.9c0.5-13.5,1-27.4-0.6-40c-1.6-12.5-5-25-8.3-37
				c-3.2-11.6-6.4-23.5-8.2-35.8c-1.7-11.9-1.1-24-0.5-35.7C2.6,83.6,3.3,70,0,57.1l11.3-2.9c1,4,1.7,8,2.1,12c0-3.9,0.2-7.8,0.3-11.7
				c0.3-7,0.5-13.8,0.1-20.2c-1.9,0-3.8,0.1-5.6,0.1L7,22.9c1.6-0.3,3.1-0.6,4.7-0.9c-0.3-1.1-0.7-2.1-1.1-3.2l-3.2-8.2l8.9,0.3
				c33.7,1.1,64,1.8,93.6-0.2c5.3-0.4,10.6-1.1,15.9-2c14.2-3.1,28.8-6.2,43.7-7.1c0.3,0,0.7,0,1.1-0.1l0.1-1.5l0.7,1.4
				c2.4-0.1,4.8-0.2,7.2-0.1l-0.1,9c3.6-0.7,7.2-1.4,10.7-2.2l7-1.5l0.1,7.2c0.2,19.4-3.4,38.8-6.9,57.4c1.8,4.9,3.7,9.9,5.6,14.9
				c6.3,16.5,12.8,33.5,14.9,50.5c2.9,23.8-0.4,49.8-3.6,73.2c1.5,20.7,0.7,41.5-4.4,61.7c0,1.9,0,3.7,0,5.6c0.7,1.8,1.3,3.4,1.5,4.1
				l1.6,7.1l-7.3,0c-0.3,0-0.7,0-1,0l-4.6,13l-3.9-12.9c-7.9,0.2-15.8,0.5-23.7,0.9c-5.1,0.9-10.3,1.9-15.6,3
				c-13.8,2.8-28.1,5.6-42.3,6.1c-7.9,0.3-15.8,0.3-23.6,0.2c-15.5,5.2-31.4,9.1-47.6,7.6l3.4,36.8L33.8,350.4z M25.4,34.2
				c0.4,6.9,0.2,13.9-0.1,20.8c-0.3,7.4-0.5,14.4,0,21c0.6,6.9,1.1,13.8,1.7,20.8c1.6,20.8,3.2,42.2,7,62.8
				c5.3,28.7,3.5,58.7,1.9,87.6c-0.8,13.7-1.5,26.9-1.5,39.5c18.9-0.3,37.6-1.6,56.1-3.2c1.2-0.4,2.4-0.9,3.6-1.3
				c8.9-3.2,18.1-6.5,26.9-8.8c17.8-4.7,37.7-6.7,62-6.1c-1.9-12.3-2.4-25.1-2.9-37.7c-0.4-11-0.9-21.5-2.1-31.4
				c-0.8-6-1.6-11.9-2.5-17.7c-2.6-17.7-5-34.5-5-53.1c0-18.5,3.2-36.7,6.4-54.2c0-0.5,0-1,0-1.5c-5.4-15.6-9.5-31.5-8.7-47.6
				C120.2,31.9,68.1,33.5,25.4,34.2z"/>
			<path id="door-2" d="M141.6,159.4c-0.2,0-0.5,0-0.7,0l-6.3-7.2c0-0.1,0-0.3,0-0.4c-0.3-1-0.5-2-0.6-3c-0.2-0.5-0.3-1.1-0.5-1.6
				c-0.7-2.1-1.4-4.4-1.4-6.8c0,0,4.8-5.6,6.1-7c2.5-2.5,8.3-6.3,18.9-3.4l5,7c0.3,2.1,0.2,4.1-0.1,6.1l-2.5,7c-0.5,0.8-1,1.5-1.6,2.2
				C154.2,157,148.4,159.4,141.6,159.4z"/>
		</g>
	</defs>
	<use x="0" y="0" style="fill: #5E873C;" xlink:href="#door-1" />
	<use x="0" y="0" style="fill: #5E873C;" xlink:href="#door-2" />
	
	<use x="0" y="450" style="fill: #456E23;" xlink:href="#door-1" />
	<use x="0" y="450" style="fill: #456E23;" xlink:href="#door-2" />
</svg>