<svg version="1.1" id="Layer_1" xmlns="http://www.w3.org/2000/svg" xmlns:xlink="http://www.w3.org/1999/xlink"
	 width="334px" height="344px">
	 <defs>
	 	<g id="key">
			<path id="key-1" d="M232,64.2c-10.7,0-21.7-0.8-32.6-1.5c-9.9-0.7-19.3-1.3-27.7-1.4c-23.1,0-42.1-2.5-63.5-6.3
				c-1.6-0.3-3.3-0.6-4.9-0.8c-9.8-0.1-19.7-0.4-29.6-1.9c-2.1-0.3-4.2-0.6-6.5-1c-14.3-0.7-29.1-1.7-43.8-5L0,40.9l14.1-9.4
				c10.4-0.8,35,4.2,48,6.4c2,0.4,4,0.7,6,1c0.8,0,1.5,0.1,2.3,0.1c10.9,0.6,22.2,1.1,33.5,2.7c3.2,0,6.3,0,9.5,0
				c13.6,0,27.7,0,41.5,2.2c29.3,4.7,58,7.3,84.3,7.6c9-0.3,17.6-1.4,25.1-3.8l1,8.2l2.9-2.4c0.2,0-2.1,2.5-2,2.4l0,0.1l4,0.7
				c0,0.2,0,0.5,0,0.8c0,0.8,0.1,1.8-0.2,3l-0.7,2.6l-2.7,0.1c-8.8,0.4-17.9,0.6-27.3,0.5C236.9,64.1,234.4,64.2,232,64.2z"/>
			<path id="key-2" d="M12,76.7c-1.3-0.1-2.7-0.3-4-0.6c0,0,2.1-24.5,3.5-36.1l6.8,0.8c0,0,0,0,0,0c7.5,0.1,14.7,2.2,21.7,4.2
				c9.4,2.7,18.3,5.3,27.6,3.3l4.8-1l-0.7,4.8c-0.5,3.6-0.6,7.2-0.7,11.1c-0.1,4.9-0.3,9.9-1.3,15l-0.6,3l-3-0.2
				c-13-1.1-8.5-1.6-10.5-9.7c-0.4-1.5,0.7-4.7,0-6.9c-0.3-0.1-8.9,0.4-9.2,0.4c0.9,2.9,1.5,6.1,0.9,9.5l-0.4,2.8l-2.8,0.1
				c-6.4,0.2-6.6,1.5-9.4-1.6c-2.5-2.9-0.7-8.7-0.6-12.5c-0.1,1-11.3-1.7-11.4-0.8c-0.4,2.9,3.5,8.8,3,11.7l-0.5,2.7l-2.3,1.6
				C22.6,78.3,13,77.6,12,76.7z M41.1,65.8c0.2,0.6,0.4,1.1,0.6,1.5c0.2,0.3,0.4,0.6,0.7,0.9C42.1,67.4,41.7,66.6,41.1,65.8z"/>
			<path id="key-3" d="M260,121.4c-8.4-1.2-16.5-5.1-23.3-11.7c-9.4-9-16.1-23.3-13.9-38.6c-2.4-16.4,1.3-34,11.4-46.8l5.2,4.1
				c2.9-4.7,6-9,9.1-12.6C254.2,9.2,262,0.2,273.2,0c7.4-0.1,17.5,3.3,24.2,5.5l0.5,0.2c21,7,37.8,38.6,36.3,58.7
				c-0.2,3.3-1,6.7-2.1,9.9c0.4,12.6-4.2,25.3-12.8,34.9c-11.2,12.5-23.7,10.8-36.8,8.8C275.3,121.4,267.5,122.5,260,121.4z
				 M238.8,75.9c0.9,3.5,2.2,6.7,4,9.5c5.2,8,14.1,13,26.7,14.8c0,0,0,0,0,0c21,3,36.5-6.1,42.6-25.2c3.2-9.9,6.1-20.8-0.5-30.2
				c-0.2-0.1-7.8-15.1-8.1-15.2c-10.2-5.9-27.3-8.4-39-6.3c-6.4,1.1-13.8,16.9-19.8,23.6c-1.5,4.3-2.6,9.2-3.5,14.8
				c-0.3,1.7-0.6,3.4-0.9,5.3C239.8,69.9,239.2,72.9,238.8,75.9z"/>
		</g>
	</defs>
	<use x="0" y="0" style="fill: #CC6227;" xlink:href="#key-1" />
	<use x="0" y="0" style="fill: #CC6227;" xlink:href="#key-2" />
	<use x="0" y="0" style="fill: #CC6227;" xlink:href="#key-3" />
	
	<use x="0" y="222" style="fill: #B3490E;" xlink:href="#key-1" />
	<use x="0" y="222" style="fill: #B3490E;" xlink:href="#key-2" />
	<use x="0" y="222" style="fill: #B3490E;" xlink:href="#key-3" />
</svg>