<svg version="1.1" id="Layer_1" xmlns="http://www.w3.org/2000/svg" xmlns:xlink="http://www.w3.org/1999/xlink" 
	width="572px" height="626px">
	<defs>
		<g id="houses">
			<g>
				<path id="house-1" d="M41.7,241.1l-5.3-10.4c-0.2,0-0.3,0-0.5,0l5.1-8l-9-9.7c2.6-5,1.2-16.9,0.3-25.7c-0.5-4.7-1-9.1-1.1-13.1
					c-0.1-5.5-0.1-11.1-0.1-16.5c0-7.7,0-15.7-0.4-23.4l-1.5,4.3l-2.1-34.9c-0.7-4.4-1.2-8-0.9-15.9l0.8,0l1.6-4.7l0.1-6l1.7,0.6
					l0.8-2.4l8.9,3.3c8.2,3.1,20,1.6,32.6-0.6c7.9-1.4,16.1-2.8,24.5-2.9c3.7,0,7.4-0.1,11-0.1l15.9,0.1c6.9,0.1,13.9,0.1,20.9,0.1
					c15.8,0,27.8-0.3,39.1-1l9.7-0.6l1.2,9.7c3.8,31.1,6.8,64.7,2.6,100.1c-0.7,5.5-0.6,6.1-0.5,6.8c0.3,2,0.5,4.2,0.4,10l-0.2,1.5
					l-5.3,27.5l-8.1,0.5c-7,0.5-17.4,0.1-27.4-0.2c-7.3-0.2-14.4-0.5-19.4-0.4c-8.5,0.2-14.4,0.8-20,1.3c-6.6,0.6-13.4,1.3-23.5,1.3
					h-0.5c-7.5,0-15.8-0.2-24.2-0.5c-7.2-0.2-14.6-0.4-21.6-0.5L41.7,241.1z M47.7,101c0,0.2,0,0.3,0.1,0.5c0.3,2,0.8,4.3,1.2,7.6
					c0.7,5.5,1.5,11.1,1.9,16.8c0.9,10.7,0.9,21.4,0.9,31.8c0,5.3,0,10.7,0.1,16c0.1,3,0.5,6.8,1,10.9c1,9.2,1.8,18.4,1.1,26.5
					c13.3-0.2,26.6-0.2,39.6-0.2c26.6,0,53.7-0.1,80.5-1.5c0.5-2.1,1.3-3.6,2-5.1c0.6-1.1,1-1.9,1.2-5.8c1.5-27.6,1.2-71.8-1.7-103.3
					c-8.9,0.4-18.6,0.5-30.3,0.5c-7,0-14-0.1-20.9-0.1L108,95.5c-3.4,0-6.8,0-10.3,0.1c-7,0.1-14.1,1.3-21.6,2.7
					C66.8,99.9,56.8,101.6,47.7,101z"/>
				<path id="house-2" d="M351.2,110.2l5.5,18.6l-135.3-8c-10-3.7-19.4-11.1-28.9-18.9c-4.6-3.8-9.3-7.7-13.2-10.3
					c-15.2-10.1-28.3-24.1-40.9-37.8c-3.1-3.4-6-6.7-8.8-9.8C120.7,34,113,25.3,102.1,18.8l8.3-16.4l5.9,2.6
					c13.3,7.8,20.2,15.8,28.2,25c2.6,3.1,5.5,6.4,8.9,10c11.8,12.7,24,25.8,37.1,34.5c4.8,3.2,9.9,7.5,15,11.6
					c2.2,1.8,4.2,3.5,6.1,5.2c5.3,4.6,9.2,7.9,13.8,9.7l1.9,0.7L351.2,110.2z"/>
				<path id="house-3" d="M13.9,116l-10.3,7.4L0,115.2l9.7-14.8l3-0.2c5.6-0.4,10.4-1.8,14.9-4.3c1.8-2.2,3.6-4.8,5.4-7.4
					c4.3-6,8.3-11.7,13.4-15.3c5.9-4.1,11.6-8.6,17.9-13.5c8.4-6.6,16.9-13.3,26.3-19.2c5.8-3.7,11.7-7.2,17.4-10.7
					c3.8-2.3,7.4-4.4,11-6.5C128.3,18,137,13,145.7,6.1l5.5-4.4l8.6,6.3l4-1.5l0.1,4.5l5.9,4.4L164,20l0.1,8.4l-6.1,2.3
					c-20.9,7.8-42.2,18.9-58.3,30.4c-3,2.2-6.2,4.4-9.4,6.8l-1.4,1c-8.6,6.2-16.2,13.7-23.6,20.9c-10,9.8-19.6,19-31.1,25.5
					c-2.4,1.9-5,3.2-7.6,4L13.9,116z"/>
			</g>
			<g>
				<path id="house-4" d="M188.6,137.8l-7.5-20.5l7.7-15.3l6.9,1.5c0.3,0.1,0.6,0.1,0.9,0.1c1.2,0,1.9-0.1,2.6-0.3
					c2.9-2.4,5.9-5.9,8.9-9.3c4.9-5.5,9.5-10.8,14.9-13.8c6.4-3.5,12.8-7.5,19.1-11.4c9.1-5.7,18.3-11.5,28.4-16.5
					c6-3,12-5.8,17.9-8.5c4.5-2.1,8.4-3.8,12.2-5.5c9.7-4.3,18.9-8.3,28.3-14.3l6-3.8l17,15.6l-10.1,6.4c-9.6,6.1-19.5,10-29,13.8
					c-5.2,2-10.1,4-15,6.3c-2.8,1.3-6.3,2.8-9.9,4.2c-4.1,1.7-8.3,3.4-11.3,4.9c-5.5,2.7-9.5,5.5-14.3,8.8c-2.8,1.9-5.6,3.9-8.9,6
					c-3.2,2-6.4,4-9.6,6l-25,19.3c-2.9,2.9-6,5.6-9.8,7.5c-3.3,2.4-6.6,4-9.8,4.8L188.6,137.8z"/>
				<polygon id="house-5" points="368.2,245.8 313.1,238.1 188.5,228.7 189,207.1 267.6,210.7 396.2,224.4 		"/>
				<path id="house-6" d="M209.5,249.3l-9.7-8.3c-4.1-2-2-30.2,0.2-39.1c1.1-4.2,2.1-8.5,2.9-14.1c0.9-6.3,1.7-12.2,2.1-17.3
					c1.2-14.5,2.5-30.8,2.3-46.6c0-1,0-2,0-3.1c-0.3-0.5-0.6-1-0.9-1.6l-1.3-2.6l8.1-51.2l12.8,26.4c1.9,4,2.8,6.9,1.8,10.7
					c1.1,2.3,0.9,4.7,0.7,7.8c-0.3,5-0.6,9.7-0.6,13.3c0.2,16.9-1.2,33.7-2.4,48.6c-0.5,5.6-1.3,11.6-2.1,18
					c-1.7,12.1-3.8,18.8-5.1,23.2c-1.6,5-1.7,5.3-0.4,8.8l0.9,2.7L209.5,249.3z"/>
				<path id="house-7" d="M352.1,234.8l-5.7,0.3c-2.7-10.4-2-9.3-1.1-21.5c0.5-6.5,1-12.3,0.8-16.7c-0.4-18.3,3.6-37,7.5-55.2
					c1-4.5,2-8.8,3-12.9c3.2-13,5.9-24.3,4.9-36.9l18.2-2.6l1.3,6.3c1.2,15.4-1.4,25.6-4.4,37.5c-1,3.9-2.1,8.1-3.1,13
					c-3.7,16.9-7.4,34.4-7.1,50.2c0.1,5.6-0.4,12.1-0.9,18.9c-0.2,2.8-0.5,5.5-0.7,7.9c-0.7,7-1.3,12.1,0,16.9l0.5,1.9L352.1,234.8z"
					/>
				<polygon id="house-8" points="373.9,151.9 304.9,57.6 274.8,14 271.8,8.4 282.2,3.5 347.8,82.6 384.2,132.6 389.4,142.2 		"/>
				<path id="house-9" d="M336.2,253.5l3.8-32.2c3.8-7,4-14.7,4.3-31.5c0.1-3.2,0.1-6.7,0.3-10.6c0.2-5.9,0.3-12.7,0.8-18.5
					c1.2-14.9,2.6-31.7,5.6-48.3c0.6-3.5,1.1-8.1,1.6-12.9c0.4-3.6,0.5-6.5,0.6-9c0.2-6.9,0.5-13.4,5-19.8l4.6-6.5l19.6,10.1l-6.1,8.6
					c-1.6,2.3-1.9,5.1-2.5,11.9c-0.2,2-0.3,4.1-0.6,6.5c-0.6,5.6-1.1,10.5-1.8,14.8c-2.8,15.6-4.1,31.8-5.3,46
					c-0.5,5.6-0.6,12.1-0.8,17.8l-0.1,3.7c-0.5,16.4-0.8,28.3-5.5,42l-0.6,1.9L336.2,253.5z"/>
			</g>
			<g>
				<path id="house-10" d="M336,123l27.8-26.8l2.9-0.4c15.6-2.2,23.1-11.8,33.5-25.1c6.4-8.2,13.6-17.4,23.8-26
					c2.2-1.9,5.1-3.9,7.9-5.8c2.1-1.5,4.2-2.9,5.6-4.1c16.5-13.6,34.6-14.4,57.1-24.6l12.2,6.2c-20.4,9.3-40.8,21.8-56.1,34.4
					c-3.1,2.6-6.4,5.3-9.7,8.1l-0.5,0.4c-8.1,6.8-15.2,14.8-22.1,22.5c-14.8,16.6-30.1,33.8-54.3,37.2L336,123z"/>
				<path id="house-11" d="M530.8,226c-7.6,0.2-15.3,0.6-22.8,1.1c-7.6,0.4-15.6,0.9-23.4,1.1l-2.7,0c-8.1,0-16.1-0.8-24.9-1.8
					c-14.6,0.2-29.3,0.4-44,0.1c-5.8,1-11.1,1.8-16.7,1.8l0,0c-0.7,0-1.4,0-2.2,0l-9.4-0.4l-0.5-9.4c-0.1-2.8-0.3-5.5-0.4-8.3
					c-0.4-9.3-0.9-19-2.1-28c-4.7-33-5.4-66.7-2.1-100.1l1-9.7l9.7,0.4c20,0.8,40.4,0.1,59.9-0.5l14.2-0.4c3.6-0.1,7.2-0.2,10.8-0.2
					l1.8,0c20-0.3,40.6-0.6,57.2-7.2l13.3-5.4l0.9,14.3c0.7,11.5-0.4,22.6-1.5,33.3c-0.6,5.5-1.1,10.8-1.4,16
					c-0.6,9.9-0.4,20.2-0.1,30.2l0,0.9c0.1,5.1,0.2,10.4,0.2,15.6c0,3.9-0.4,8.1-0.8,12.7c-0.7,8.4-1.7,19.1,0.2,24.7l2.7,12.3
					l3.8,6.6l-9.8,0.5L530.8,226z M404.4,207.9c2.4,0.1,4.8,0.1,7.2,0.2l0,0c6-1.1,12.1-2.2,18.6-2.2c9.2,0,18.3,1,27.1,2l0.6,0.1
					c8.7-0.2,17.3-0.4,25.9-0.5c12.6-0.3,26.3-0.6,40-0.7c-0.9-8-0.3-17.1,0.5-26.2c0.4-4.2,0.7-8.1,0.7-11.2c0-5-0.1-10.1-0.2-15.1
					l0-0.9c-0.2-9.9-0.5-21,0.2-31.9c0.3-5.6,0.9-11.2,1.5-16.6c0.6-5.6,1.2-11.2,1.5-16.7c-16.3,3.8-33.5,4-50.3,4.3
					c-4.2,0.1-8.4,0.1-12.4,0.2L451,93c-16.7,0.6-34.1,1.1-51.5,0.8c-1.7,28,0.6,57.6,2.9,86.3l0.1,0.6
					C403.1,189.7,403.9,198.9,404.4,207.9z"/>
				<path id="house-12" d="M522.4,88.3c-2.8,0-5.9-1-13.9-6.3c-6.5-4.3-12.8-9-18.8-13.5c-3.4-2.5-6.1-4.7-8.7-6.9
					c-4.4-3.6-8.3-6.8-13.5-10c-2.9-1.8-7-3.8-10.9-5.9c-3.4-1.8-6.8-3.5-9.5-5c-3.6-2.1-6.3-3.5-8.5-4.7c-6.5-3.6-9.8-5.4-20-13.1
					l-1.3-1.2l-7.4-8.3L422.2,0c12.2,9.2,21,14.7,35.2,22.8l0.8,0.5c5.5,3.2,11.2,6.4,16.8,9.8c9.5,5.7,18.2,12.2,26.6,18.5
					c5.7,4.3,12,9,18.3,13.2c7.6,5,13.6,9.7,11.5,16.9l-2,6.5L522.4,88.3z"/>
				<path id="house-13" d="M441.9,96.9c-0.7,0-1.5,0-2.3-0.1c-13-0.7-27.1-1.2-37.8-0.2c-0.7,0.1-1.4,0.1-2,0.1
					c-9,0-11.7-6.1-11.9-9.7c-0.1-1-0.1-9.9,12-11c11.9-1.1,27-0.5,40.7,0.2c3.9,0.2,7.9,0.4,11.8,0.6c1.3-0.4,2.6-0.8,3.9-1.2
					c5.8-1.8,12.4-3.9,20.4-3.9l0.7,0c16.9,0.3,30.2,0.4,40.7,0.4c18.1,0,28.5-0.5,31.1-1.6l2.6-1.5l13.3,1l7.1,16.5l-11.3,1.7
					c-17,4.4-33.4,4.6-49.2,4.8c-9.4,0.1-19.2,0.3-28.7,1.3c-8.3,0.9-18.2,1.1-28.4,0.8C450,96.3,446,96.9,441.9,96.9z"/>
				<path id="house-14" d="M375.4,263.8v-42l1.1-2.1c2.3-4.3,2.7-9,3.3-16.2c0.2-2.5,0.4-5.1,0.7-8c0.7-6.5,1.5-13.3,2.9-19
					c3.7-15.2,2.8-33,1.9-50.2c-0.3-5.1-0.7-9.3-1-13.1c-1.1-11-1.9-19.6,2.7-34.7l0.9-2.9l27.2-20.1l-8.3,26.7
					c-3.5,11.4-2.9,18.1-1.9,29.1c0.4,4.1,0.8,8.6,1.1,13.8c0.9,18.7,1.9,38-2.5,56.1c-1.1,4.4-1.7,10.3-2.4,16.4
					c-1.4,12.4-3.1,24.3-8.5,34.2L375.4,263.8z"/>
				<path id="house-15" d="M563,109.2l-16.8-6.5c-22.3-11.7-47.1-28.9-71.8-49.6l-0.6-0.5c-3.3-2.8-6.6-5.5-9.7-8.1
					c-14.4-11.9-24.7-19.8-46.6-29.8l25.7-4.1c0,0,17.9,4.4,29.1,13.7l5,4.2c1.4,1.2,3.5,2.6,5.7,4.1c2.8,1.9,5.7,3.9,7.9,5.8
					c17.3,14.5,32.2,23.9,45.3,32.2c6.2,3.9,12,7.6,17.6,11.5l2.3,1.6L563,109.2z"/>
			</g>
		</g>
	</defs>
	<use x="0" y="0" style="fill: #003945;" xlink:href="#house-1" />
	<use x="0" y="0" style="fill: #003945;" xlink:href="#house-2" />
	<use x="0" y="0" style="fill: #003945;" xlink:href="#house-3" />
	<use x="0" y="0" style="fill: #003945;" xlink:href="#house-4" />
	<use x="0" y="0" style="fill: #003945;" xlink:href="#house-5" />
	<use x="0" y="0" style="fill: #003945;" xlink:href="#house-6" />
	<use x="0" y="0" style="fill: #003945;" xlink:href="#house-7" />
	<use x="0" y="0" style="fill: #003945;" xlink:href="#house-8" />
	<use x="0" y="0" style="fill: #003945;" xlink:href="#house-9" />
	<use x="0" y="0" style="fill: #003945;" xlink:href="#house-10" />
	<use x="0" y="0" style="fill: #003945;" xlink:href="#house-11" />
	<use x="0" y="0" style="fill: #003945;" xlink:href="#house-12" />
	<use x="0" y="0" style="fill: #003945;" xlink:href="#house-13" />
	<use x="0" y="0" style="fill: #003945;" xlink:href="#house-14" />
	<use x="0" y="0" style="fill: #003945;" xlink:href="#house-15" />
	
	<use x="0" y="363" style="fill: #00202C;" xlink:href="#house-1" />
	<use x="0" y="363" style="fill: #00202C;" xlink:href="#house-2" />
	<use x="0" y="363" style="fill: #00202C;" xlink:href="#house-3" />
	<use x="0" y="363" style="fill: #00202C;" xlink:href="#house-4" />
	<use x="0" y="363" style="fill: #00202C;" xlink:href="#house-5" />
	<use x="0" y="363" style="fill: #00202C;" xlink:href="#house-6" />
	<use x="0" y="363" style="fill: #00202C;" xlink:href="#house-7" />
	<use x="0" y="363" style="fill: #00202C;" xlink:href="#house-8" />
	<use x="0" y="363" style="fill: #00202C;" xlink:href="#house-9" />
	<use x="0" y="363" style="fill: #00202C;" xlink:href="#house-10" />
	<use x="0" y="363" style="fill: #00202C;" xlink:href="#house-11" />
	<use x="0" y="363" style="fill: #00202C;" xlink:href="#house-12" />
	<use x="0" y="363" style="fill: #00202C;" xlink:href="#house-13" />
	<use x="0" y="363" style="fill: #00202C;" xlink:href="#house-14" />
	<use x="0" y="363" style="fill: #00202C;" xlink:href="#house-15" />
</svg>