<?xml version="1.0" encoding="utf-8"?>
<!-- Generator: Adobe Illustrator 18.0.0, SVG Export Plug-In . SVG Version: 6.00 Build 0)  -->
<!DOCTYPE svg PUBLIC "-//W3C//DTD SVG 1.1//EN" "http://www.w3.org/Graphics/SVG/1.1/DTD/svg11.dtd">
<svg version="1.1" id="Layer_1" xmlns="http://www.w3.org/2000/svg" xmlns:xlink="http://www.w3.org/1999/xlink" x="0px" y="0px"
	 viewBox="0 0 460.5 217.7" enable-background="new 0 0 460.5 217.7" xml:space="preserve">
<path fill="#013A46" d="M194.7,67.6l11.9-3.1L193.6,60l-6-0.3l-0.9,0.5c-0.8,0.4-2.6,1-7,1.6c0.1-0.1,0.1-0.2,0.2-0.3l2.5-4
	l-5.4-1.7l-0.3-2.7l-6,2.4c-0.3,0.1-2.9,2.7-6.5,4.2c-2.9-1-5.1-1.6-5.8-1.4c-13.1-6.7-18.7-16.1-35.2-27.5c-2.1-1.5-5-4-7.8-5.6
	c-0.6-0.3-4.6-4.6-5.2-4.9l-1.9-2c0.9-0.4,1.8-0.9,2.8-1.4l-0.9-0.7l5.2-2.6l-9.1-8.4l-2.1,1c-5.6,2.8-4.1,2.1-6.6,3.7
	c-0.4-0.1-1.5,3.3-2,3.2C94.1,13,93.1,12.8,82.7,9l-0.5-0.2L54.7,0l-1.2,0.7L73,12.8c9.2,3.3,11.1,5.9,13.9,6.7c0.1,0,0.1,0,0,0
	c0.2,0.1,0.5,0.2,1.1,0.5c-1.4,1.6-7.3,8.5-10.7,11.6c-1.3,1.1-2,2.6-4.1,4.2c-2.4,1.8-3.6,3.7-5.4,5.3c-6.6,6-11.6,12.2-15.3,17.1
	c-3,2.4-7,5.5-10.9,8.3c-0.8,0.6-1.6,1.2-2.4,2c-3.5,0.1-6.7,0.2-7.4,0.3l2-6.6h-0.1l0,0l-1.6,0.2l-9.3,6.6h-0.2
	c-1.2,0-2.3,0.1-3.4,0.1h-4.6l-0.4,4.4c-0.4,5.7-0.7,11.7-0.9,17.8L0,105l9.5-1.7l-3.2,3.1l1.5,0.4l5.5-4.3c0,0,0.1,0,0.1,0
	c0.2,20.7,2.3,41.4,6.3,61.5c0.2,0.8,0.3,1.6,0.4,2.4c-0.5,3.4-0.8,7.1-1.2,10.9c-0.2,2.6-0.4,5-0.5,7.2c0,0.2,0,0.5,0,0.7l-7.3,0.4
	l-0.2,6.6l-2,0.1l0.9,10.5l4.6-0.2l0.5,15h0.9l5.6-9.4c1-1.8,1.9-3.7,2.7-5.9l88.4-3.7c3.6,0,6.3,0,9-0.2l1.4-0.1l44.7,0.9
	l-8.1,17.7l1.5-0.4l11.3-13.4l1,3.5l1-2.7l5.7-2.8c-0.7-1.6-1.2-3.2-1.8-4.9l0.7-0.9l0.2-0.8c3.4,0.4,4.1-1.1,4.1-1.1l-1.3-3.2
	l10.6-0.3l0.2-7.4l-11.4-1.1l-0.3,0c0.4-7.5-0.4-15.3-1.3-24.8l-0.3-3.4c-0.5-5.8-1.1-11.2-1.2-15.9c-0.5-13.3-1-28.4,0.1-43.3
	c0.3-3.7,0.2-5.6,0.1-10.9l-3.2-2.4c0,0,0-0.1,0-0.1l7-1.6l0.4,0.8l3.3-1.6h0l0,0l3.3-1.6l-2.6-5.5l-1-0.6c-0.4-0.2-0.8-0.5-1.2-0.7
	c0,0,0,0,0.1,0C187.9,69.2,191.4,68.5,194.7,67.6z M31.4,112.2L31.4,112.2c-0.4-4.8-1-8.9-1.5-12.5c-0.2-1.3-0.4-5.1-0.5-6.3
	c7.4-4.6,11.1-8.4,15.9-13.7c7.9-0.2,18.3-0.2,26-0.1c5.8,0,10.7-1,14.5-2.1c8.2,0,18.8-0.3,29.4-1.7c10.2-1.3,20.4-1.8,30.3-2.3
	l0.9,0c1.2,3.3,2,6.9,2.9,11.4c0.5,2.1,0.9,4.4,1.5,6.9c1.4,6,2.8,11.6,4.4,16.3c4.9,14.2,6.6,30.8,8.2,46.9c0.5,4.6,0.7,8.6,1,12.4
	c0.3,4.9,0.6,9.2,1.2,13.6l-44.8-1.4l-0.2,0l-88.5,5c-0.7-6-1.4-11.9-2.1-17.5c0.2-1.4,0.5-3.1,0.8-4.6
	C34.5,146.4,32.9,129,31.4,112.2z M167,88.6c-0.4,4.7-0.8,10-1,15.3c-0.1,2.8-0.1,5.5-0.1,8.3c-0.7-2.5-1.4-4.9-2.2-7.2
	c-1.4-4.1-2.7-9.5-4.1-15.3c-1.5-6.3-2.9-11.7-4.6-16.5c3-0.2,6.2-0.4,9.5-0.7c1.2,0.6,2.3,1.2,3.5,1.7
	C167.8,79.1,167.4,84.1,167,88.6z M103.5,30.7c4.9,5.1,12.4,12.6,15.4,14.7c2.7,1.8,4.6,5.1,7.8,7.1c5,3.1,9,6.5,14.7,9.8
	c-1.9,0.2-3.9,0.4-5.9,0.6c-8.6,0.6-18.1,1.3-27.4,1.9l0,0c-0.6,0-1.1,0.1-1.7,0.1l-0.3,0c-3.2,0.2-6.5,0.3-9.6,0.5
	c-4.9,0.3-9.8,0.6-14.7,0.9c-3.4,0.2-6.6,0.4-9.9,0.6c-5.4,0.3-10.2,0.6-13.8,0.8c1.4-1.7,2.8-3.4,4.3-5.1l1.8-1.5
	c2.7-2.2,5-4.2,7.3-6.2c3.9-3.5,6.3-5.5,9.6-10.5c2.3-3.5,14.6-16,17.4-18.2C99.3,27.1,101.2,28.7,103.5,30.7z"/>
<g>
	<path fill="#013A46" d="M265.5,100.3c-0.5,1.2-1.1,2.5-1.8,3.9c-0.7,1.5-1.1,2.4-1.2,2.7c-0.3,0.6-0.8,1.2-1.5,1.7
		c-0.7,0.5-1.9,0.8-3.3,0.8h-7.2c-0.7,0-1.2,0.2-1.6,0.7c-0.4,0.4-0.6,1-0.6,1.6v78.3h-7.1c-1,0-1.7-0.2-2-0.7
		c-0.3-0.5-0.5-0.9-0.6-1.2v-78.5h-12.8v-6.4c0-0.8,0.3-1.5,0.8-2c0.5-0.5,1.2-0.8,2-0.8H265.5z"/>
	<path fill="#013A46" d="M309.8,189.9h-9.2v-32.8c0-2.3-0.5-3.8-1.4-4.6c-1-0.8-2.1-1.2-3.4-1.2h-4.8v38.5h-9.2v-89.7h16.7
		c1.6,0,3,0.3,4.4,0.9c1.4,0.6,2.6,1.4,3.6,2.4c1,1,1.8,2.2,2.4,3.5c0.6,1.4,0.9,2.8,0.9,4.4v27.8c0,1.8-0.2,3.1-0.6,4.2
		c-0.4,1.1-0.8,1.8-1.2,2.4c-0.5,0.6-1.1,1-1.7,1.3c0.6,0.3,1.2,0.9,1.7,1.7c0.4,0.7,0.8,1.6,1.2,2.7c0.4,1.1,0.6,2.5,0.6,4.1V189.9
		z M299.2,141.8c1-0.7,1.4-2.1,1.4-4.1V114c0-1.7-0.5-2.9-1.4-3.6c-1-0.7-2.1-1-3.4-1h-4.8v33.4h4.8
		C297.1,142.9,298.2,142.5,299.2,141.8z"/>
	<path fill="#013A46" d="M347.7,101.5c0.5,0.8,0.8,1.6,0.8,2.3v86.1h-6.6c-1,0-1.7-0.2-2-0.7c-0.3-0.4-0.5-0.9-0.6-1.3v-87.7h5.5
		C346.2,100.3,347.2,100.7,347.7,101.5z"/>
	<path fill="#013A46" d="M401.3,145.1c0.9,0.3,1.8,0.9,2.6,1.6c0.7,0.6,1.3,1.4,1.8,2.3c0.5,0.9,0.8,2.1,0.8,3.5v26.2
		c0,3.1-1.1,5.8-3.3,8c-2.2,2.2-4.9,3.3-8,3.3h-16.7v-44.6v-0.3V145v-0.1v-44.6h16.7c1.6,0,3,0.3,4.4,0.9c1.4,0.6,2.6,1.4,3.6,2.4
		c1,1,1.8,2.2,2.4,3.5c0.6,1.4,0.9,2.8,0.9,4.4v26.4c0,1.5-0.3,2.7-0.8,3.5c-0.5,0.9-1.1,1.6-1.8,2.2
		C403.1,144.2,402.2,144.7,401.3,145.1z M397.2,114c0-1.7-0.5-2.9-1.4-3.6c-1-0.7-2.1-1-3.4-1h-4.8v31.5h4.8c1.3,0,2.4-0.4,3.4-1.1
		c1-0.7,1.4-2.1,1.4-4.1V114z M397.2,154.5c0-2-0.5-3.4-1.4-4.1c-1-0.7-2.1-1.1-3.4-1.1h-4.8v31.5h4.8c1.3,0,2.4-0.3,3.4-1
		c1-0.7,1.4-1.9,1.4-3.6V154.5z"/>
	<path fill="#013A46" d="M440.5,180.8h19.3c0.6,0,0.8,0.3,0.7,1c-0.2,0.7-0.5,1.4-1,2.2c-0.5,0.8-1,1.6-1.6,2.3
		c-0.6,0.7-0.9,1.1-1.1,1.2c-0.3,0.6-0.8,1.2-1.5,1.7c-0.7,0.5-1.9,0.8-3.3,0.8h-20.6v-87c0-0.8,0.3-1.4,0.9-1.9
		c0.6-0.5,1.2-0.7,1.9-0.7h24c0.6,0,0.8,0.3,0.7,1c-0.2,0.7-0.5,1.4-1,2.2c-0.5,0.8-1,1.5-1.6,2.2c-0.6,0.7-0.9,1.1-1.1,1.2
		c-0.3,0.6-0.8,1.2-1.5,1.8c-0.7,0.6-1.9,0.9-3.3,0.9h-7.5c-0.6,0-1.1,0.2-1.6,0.6c-0.4,0.4-0.7,0.9-0.7,1.5v26.9h13.9
		c0.6,0,0.9,0.3,0.7,1c-0.1,0.6-0.4,1.4-0.9,2.2c-0.5,0.8-1,1.6-1.6,2.3c-0.6,0.7-1,1.1-1.2,1.2c-0.3,0.7-0.8,1.3-1.5,1.8
		c-0.7,0.5-1.9,0.8-3.3,0.8l-3.8-0.1c-0.6,0-1.1,0.2-1.6,0.7c-0.4,0.4-0.7,1-0.7,1.6L440.5,180.8L440.5,180.8z"/>
</g>
</svg>
